<?xml version="1.0" standalone="no"?>
<!DOCTYPE svg PUBLIC "-//W3C//DTD SVG 20010904//EN"
 "http://www.w3.org/TR/2001/REC-SVG-20010904/DTD/svg10.dtd">
<svg version="1.0" xmlns="http://www.w3.org/2000/svg"
 width="1300.000000pt" height="400.000000pt" viewBox="0 0 1300.000000 400.000000"
 preserveAspectRatio="xMidYMid meet">
<metadata>
Created by potrace 1.16, written by Peter Selinger 2001-2019
</metadata>
<g transform="translate(0.000000,400.000000) scale(0.100000,-0.100000)"
fill="#000000" stroke="none">
<path d="M1990 3410 l0 -60 4200 0 4200 0 0 60 0 60 -4200 0 -4200 0 0 -60z"/>
<path d="M1825 3078 c-27 -6 -52 -14 -55 -18 -3 -4 -50 -15 -105 -25 -55 -10
-104 -21 -110 -26 -5 -5 -17 -9 -27 -9 -13 0 -18 -8 -18 -30 0 -32 23 -47 107
-71 28 -8 43 -19 47 -33 3 -11 6 -361 6 -776 -1 -578 -3 -759 -13 -771 -7 -8
-41 -22 -77 -30 l-65 -16 0 -39 0 -39 273 -1 272 -2 0 38 c0 38 -1 39 -54 54
-30 9 -60 16 -68 16 -38 0 -39 10 -38 913 1 715 -1 872 -12 873 -7 1 -35 -3
-63 -8z"/>
<path d="M9240 3076 c-25 -7 -52 -15 -60 -19 -8 -3 -53 -13 -100 -22 -47 -9
-94 -20 -105 -25 -11 -4 -28 -11 -39 -14 -11 -4 -16 -12 -12 -22 3 -9 6 -22 6
-30 0 -8 9 -14 19 -14 11 0 22 -4 25 -9 4 -5 29 -15 56 -22 l50 -13 0 -781 0
-782 -22 -12 c-13 -6 -45 -17 -73 -24 -49 -12 -50 -13 -53 -53 l-3 -41 271 0
271 0 -3 40 -3 41 -60 15 c-33 8 -65 20 -72 27 -10 10 -13 201 -15 891 -3 772
-5 878 -18 879 -8 1 -35 -4 -60 -10z"/>
<path d="M10545 3076 c-27 -6 -54 -14 -60 -17 -5 -4 -50 -14 -100 -23 -49 -9
-99 -21 -110 -25 -11 -5 -28 -12 -39 -15 -11 -4 -16 -12 -12 -22 3 -9 6 -22 6
-30 0 -8 9 -14 19 -14 11 0 22 -4 25 -9 3 -5 28 -14 56 -21 l50 -12 0 -251 0
-252 -142 0 c-133 0 -278 -18 -278 -34 0 -4 -22 -15 -50 -25 -27 -10 -50 -22
-50 -26 0 -5 -9 -12 -20 -15 -29 -9 -123 -108 -146 -153 -10 -20 -24 -41 -30
-47 -13 -13 -41 -103 -55 -185 -15 -84 -15 -239 0 -314 14 -68 47 -167 59
-175 5 -3 12 -13 16 -21 28 -59 117 -160 141 -160 8 0 21 -7 30 -16 24 -24
111 -44 198 -44 79 0 207 25 207 41 0 5 6 9 13 9 7 0 37 16 67 35 l55 36 10
-23 c22 -50 69 -88 119 -94 48 -7 206 21 206 37 0 4 11 10 25 13 16 4 25 13
25 25 0 41 -11 51 -56 51 -24 0 -44 5 -44 10 0 6 -6 10 -12 10 -44 1 -43 -31
-48 891 -3 569 -8 873 -15 874 -5 2 -32 -2 -60 -9z m-192 -829 l27 -12 0 -421
0 -421 -68 -26 c-156 -62 -322 -15 -384 108 -12 22 -24 42 -28 45 -19 13 -42
125 -47 230 -5 115 10 241 37 300 42 94 122 172 186 185 19 3 34 10 34 15 0
21 191 18 243 -3z"/>
<path d="M498 2953 l-278 -3 0 -33 c0 -38 12 -47 99 -72 30 -8 58 -21 63 -28
9 -14 11 -1457 2 -1481 -3 -9 -14 -16 -24 -16 -10 0 -20 -4 -22 -8 -1 -5 -28
-15 -58 -23 l-55 -14 0 -40 0 -40 298 -2 298 -2 -3 42 -3 41 -57 14 c-32 8
-58 18 -58 23 0 5 -10 9 -23 9 -46 0 -47 7 -47 317 l0 293 68 0 c40 0 73 -5
80 -12 9 -9 15 -9 24 0 7 7 37 12 68 12 83 0 167 18 238 51 72 33 76 36 147
109 93 94 131 189 141 350 8 120 -21 281 -55 310 -3 3 -19 23 -34 46 -15 23
-39 46 -52 52 -14 7 -25 16 -25 20 0 5 -21 17 -47 27 -27 10 -52 21 -58 26
-36 27 -226 37 -627 32z m402 -132 c3 -4 24 -13 48 -19 40 -12 132 -91 132
-114 0 -4 10 -30 23 -56 20 -42 22 -62 22 -201 0 -115 -3 -155 -12 -159 -7 -2
-13 -8 -13 -13 0 -15 -50 -119 -58 -119 -4 0 -23 -14 -42 -30 -19 -16 -42 -30
-52 -30 -9 0 -18 -5 -20 -10 -5 -17 -127 -30 -215 -24 l-83 7 0 388 0 388 48
4 c60 5 215 -3 222 -12z"/>
<path d="M5950 2917 c0 -28 5 -34 38 -48 20 -9 58 -22 84 -28 33 -9 48 -19 52
-35 8 -28 8 -1450 0 -1470 -3 -9 -15 -16 -25 -16 -10 0 -19 -4 -19 -10 0 -5
-6 -10 -13 -10 -7 0 -37 -7 -65 -15 -46 -14 -52 -19 -52 -43 0 -51 3 -52 303
-52 l278 0 -3 42 -3 42 -59 15 c-103 25 -96 -6 -96 403 l0 358 395 0 395 0 0
-358 c0 -407 6 -379 -88 -402 -62 -14 -74 -27 -66 -69 l7 -31 284 0 284 0 -3
42 -3 42 -60 15 c-33 9 -70 25 -83 36 l-22 21 2 737 c3 814 -2 750 68 763 19
4 50 13 68 21 27 13 32 21 32 49 l0 34 -290 0 c-279 0 -290 -1 -290 -19 0 -30
11 -51 26 -51 8 0 14 -4 14 -9 0 -5 21 -14 47 -21 26 -6 53 -16 60 -22 10 -8
13 -84 13 -324 l0 -314 -395 0 -395 0 0 308 c0 232 3 312 13 323 6 9 32 21 57
28 86 23 102 39 84 85 -5 14 -40 16 -290 16 l-284 0 0 -33z"/>
<path d="M2470 2374 c-36 -8 -83 -23 -105 -33 -22 -10 -52 -21 -67 -25 -16 -3
-28 -11 -28 -16 0 -6 -7 -10 -15 -10 -19 0 -19 -5 3 -58 l17 -44 55 6 c30 4
57 12 61 18 10 16 247 17 257 1 4 -7 24 -19 44 -27 27 -12 41 -27 58 -63 12
-26 26 -56 31 -65 5 -10 9 -52 9 -93 l0 -75 -34 0 c-19 0 -37 -4 -40 -8 -3 -5
-49 -12 -103 -15 -98 -6 -199 -23 -218 -37 -5 -4 -29 -14 -52 -23 -66 -26
-132 -86 -154 -141 -7 -17 -18 -34 -23 -38 -16 -11 -15 -250 2 -255 6 -3 12
-11 12 -18 0 -29 46 -97 77 -113 12 -7 27 -18 35 -25 54 -54 342 -62 392 -11
8 8 19 14 24 14 5 0 28 13 52 29 l43 29 16 -31 c24 -48 75 -77 135 -77 81 0
236 49 236 74 -1 46 -12 56 -61 56 -27 0 -49 5 -49 10 0 6 -7 10 -15 10 -37 0
-40 34 -40 429 0 298 -3 385 -12 388 -7 3 -13 11 -13 18 0 7 -9 35 -20 62 -20
47 -92 123 -117 123 -7 0 -13 4 -13 8 0 34 -264 53 -380 26z m320 -809 c0
-180 -1 -195 -18 -195 -10 0 -28 -7 -40 -16 -16 -11 -48 -16 -110 -16 -161 -2
-219 57 -210 213 5 92 31 139 87 159 20 7 39 17 42 22 6 9 125 24 207 27 l42
1 0 -195z"/>
<path d="M3712 2375 c-34 -8 -69 -21 -78 -29 -8 -9 -23 -16 -33 -16 -9 0 -27
-9 -39 -20 -12 -11 -25 -20 -29 -20 -13 0 -123 -110 -123 -124 0 -5 -12 -24
-26 -43 -25 -33 -64 -128 -64 -157 0 -8 -5 -16 -11 -18 -25 -8 -27 -338 -1
-391 5 -12 20 -50 32 -84 12 -34 32 -74 44 -89 53 -66 125 -133 161 -149 22
-11 42 -22 45 -25 26 -31 277 -51 382 -30 35 6 87 23 116 36 29 13 56 24 61
24 4 0 20 10 34 23 21 17 27 32 27 61 l0 38 -42 -7 c-24 -3 -97 -9 -162 -11
-93 -5 -131 -2 -175 11 -155 45 -226 113 -262 252 -37 144 -24 376 26 473 8
15 32 50 55 79 71 89 180 126 310 105 l35 -6 29 -106 c16 -59 35 -120 41 -137
7 -16 15 -38 19 -47 3 -10 14 -18 24 -18 35 0 49 33 72 175 13 77 25 152 28
167 3 23 -1 29 -39 48 -97 47 -320 64 -457 35z"/>
<path d="M4675 2375 c-32 -9 -62 -19 -65 -23 -3 -4 -21 -16 -40 -26 -48 -26
-145 -131 -173 -186 -12 -25 -25 -47 -29 -50 -4 -3 -17 -41 -30 -85 -19 -69
-22 -102 -22 -245 1 -139 4 -176 22 -234 12 -38 28 -76 35 -85 8 -9 22 -29 30
-46 8 -16 30 -46 49 -66 38 -41 134 -109 153 -109 7 0 15 -4 17 -10 5 -16 145
-40 238 -40 87 0 238 23 249 37 3 5 24 14 46 22 22 7 55 23 73 35 28 18 32 26
30 56 l-3 35 -50 -3 c-27 -2 -108 -4 -180 -5 -109 -1 -142 2 -202 21 -40 12
-82 30 -94 40 -72 58 -90 79 -117 135 -28 58 -52 167 -52 236 l0 31 357 0 356
0 -6 118 c-7 125 -35 248 -61 268 -9 6 -16 17 -16 23 0 21 -105 117 -155 141
-41 20 -67 24 -174 26 -88 3 -144 -1 -186 -11z m238 -111 c6 -3 28 -25 47 -49
37 -48 57 -121 59 -222 l1 -53 -225 0 -225 0 0 28 c1 43 17 114 27 121 6 3 16
23 24 43 21 62 92 127 149 139 34 7 118 3 143 -7z"/>
<path d="M8095 2374 c-32 -8 -62 -18 -65 -23 -3 -5 -21 -16 -41 -24 -88 -36
-200 -169 -239 -283 -57 -164 -50 -450 13 -584 7 -14 15 -27 18 -30 3 -3 14
-21 24 -39 24 -47 125 -145 167 -161 18 -8 35 -17 38 -20 24 -31 263 -52 360
-31 107 23 245 112 292 189 12 20 28 42 35 47 7 6 28 52 48 104 90 239 58 531
-78 695 -23 28 -46 54 -52 58 -6 3 -23 18 -38 32 -15 14 -34 26 -42 26 -7 0
-20 6 -27 14 -43 42 -288 60 -413 30z m200 -104 c19 0 40 -7 49 -15 8 -8 23
-19 33 -23 35 -13 94 -90 114 -147 11 -31 29 -117 41 -191 23 -143 23 -123
-14 -334 -35 -201 -165 -309 -324 -269 -62 16 -137 84 -160 145 -9 24 -20 44
-24 44 -5 0 -16 35 -26 78 -26 108 -27 375 -1 485 10 42 22 77 26 77 4 0 20
23 36 50 16 28 34 50 40 50 6 0 21 9 32 20 21 19 106 41 131 34 8 -2 29 -4 47
-4z"/>
<path d="M11270 2373 c-30 -8 -57 -18 -60 -22 -3 -5 -14 -11 -25 -15 -11 -3
-35 -19 -52 -35 -18 -16 -36 -31 -40 -33 -20 -8 -92 -109 -121 -169 -50 -104
-65 -197 -60 -374 4 -108 10 -164 23 -200 9 -27 20 -52 24 -55 3 -3 15 -23 26
-45 24 -49 105 -145 123 -145 7 0 15 -6 18 -14 3 -7 24 -22 47 -32 23 -10 45
-22 48 -26 11 -16 146 -38 236 -38 97 0 246 23 251 40 2 5 10 10 17 10 18 0
86 31 103 48 7 6 18 12 24 12 9 0 6 75 -4 85 -1 2 -23 -1 -48 -7 -25 -6 -94
-12 -153 -15 -171 -8 -310 37 -390 126 -19 21 -40 55 -47 75 -6 20 -15 36 -19
36 -11 0 -31 117 -31 179 l0 51 349 0 349 0 4 47 c6 76 -9 215 -30 274 -41
118 -141 216 -249 244 -73 19 -240 18 -313 -2z m203 -102 c24 -6 53 -24 77
-48 41 -43 55 -88 63 -215 l5 -68 -229 0 c-177 0 -229 3 -229 13 1 34 25 109
55 173 57 121 146 171 258 145z"/>
<path d="M12250 2374 c-36 -8 -72 -18 -81 -23 -9 -5 -53 -15 -98 -22 l-81 -12
0 -37 c0 -35 1 -36 53 -49 28 -7 62 -17 75 -23 l22 -11 0 -434 c0 -339 -3
-437 -13 -447 -7 -7 -37 -19 -67 -26 -71 -16 -77 -22 -72 -64 l4 -35 284 0
284 0 0 33 c0 42 -11 51 -82 66 -32 7 -58 16 -58 20 0 4 -8 10 -18 12 -17 5
-19 22 -25 173 -12 291 -9 645 6 659 19 19 94 46 128 46 17 0 39 -5 50 -11 20
-10 80 -129 93 -181 5 -23 12 -28 36 -28 16 0 31 4 34 8 3 5 15 78 27 163 13
85 26 156 31 157 4 2 8 21 8 43 l0 39 -49 0 c-70 0 -143 -16 -206 -45 -31 -14
-59 -25 -64 -25 -4 0 -21 -11 -36 -24 -16 -14 -37 -27 -47 -29 -16 -5 -18 2
-18 59 0 63 0 64 -27 63 -16 -1 -57 -8 -93 -15z"/>
<path d="M1850 595 l0 -65 4435 0 4435 0 0 65 0 65 -4435 0 -4435 0 0 -65z"/>
</g>
</svg>
