<?xml version="1.0" standalone="no"?>
<!DOCTYPE svg PUBLIC "-//W3C//DTD SVG 20010904//EN"
 "http://www.w3.org/TR/2001/REC-SVG-20010904/DTD/svg10.dtd">
<svg version="1.0" xmlns="http://www.w3.org/2000/svg"
 width="455.000000pt" height="140.000000pt" viewBox="0 0 455.000000 140.000000"
 preserveAspectRatio="xMidYMid meet">
<metadata>
Created by potrace 1.16, written by Peter Selinger 2001-2019
</metadata>
<g transform="translate(0.000000,140.000000) scale(0.100000,-0.100000)"
fill="#000000" stroke="none">
<path d="M690 1195 l0 -25 1475 0 1475 0 0 25 0 25 -1475 0 -1475 0 0 -25z"/>
<path d="M3205 1074 c-68 -16 -85 -24 -85 -39 0 -7 11 -16 25 -19 l25 -6 0
-274 0 -274 -25 -6 c-15 -4 -25 -13 -25 -25 0 -16 10 -18 100 -18 91 -1 100 1
100 18 0 12 -9 21 -25 25 l-25 6 0 308 c0 170 -3 311 -7 313 -5 2 -30 -2 -58
-9z"/>
<path d="M3680 1080 c-14 -4 -44 -13 -67 -19 -47 -13 -50 -36 -7 -47 23 -6 24
-10 24 -90 l0 -84 -47 0 c-77 0 -124 -18 -169 -65 -33 -34 -43 -54 -53 -104
-22 -114 15 -217 92 -251 53 -25 81 -25 135 0 l43 20 29 -21 c26 -20 31 -20
72 -8 49 16 55 34 18 52 l-25 13 -3 299 c-1 165 -6 302 -10 306 -4 4 -18 3
-32 -1z m-52 -441 l3 -146 -30 -13 c-44 -18 -87 -4 -118 37 -24 31 -27 45 -27
107 0 114 43 168 129 163 l40 -2 3 -146z"/>
<path d="M577 1066 c-26 -7 -51 -16 -55 -20 -8 -9 26 -36 45 -36 10 0 13 -54
13 -271 l0 -271 -30 -11 c-19 -7 -29 -18 -28 -27 4 -20 199 -22 206 -2 2 8 -9
18 -27 25 l-31 11 0 308 0 308 -22 -1 c-13 0 -44 -6 -71 -13z"/>
<path d="M70 1022 c0 -15 9 -22 30 -27 l30 -7 0 -259 0 -260 -31 -11 c-19 -7
-29 -16 -27 -27 3 -13 20 -16 111 -18 98 -2 107 -1 107 16 0 12 -11 23 -30 30
l-30 10 0 100 0 101 58 0 c91 1 165 44 191 113 18 48 14 148 -9 184 -35 58
-67 67 -242 71 -153 4 -158 3 -158 -16z m260 -47 c39 -20 60 -63 60 -122 0
-85 -45 -133 -126 -133 l-34 0 0 135 0 135 35 0 c20 0 49 -7 65 -15z"/>
<path d="M2080 1021 c0 -13 9 -21 30 -26 l30 -7 0 -259 0 -260 -30 -10 c-19
-7 -30 -18 -30 -30 0 -17 8 -19 105 -19 97 0 105 2 105 19 0 12 -11 23 -30 30
l-30 10 0 120 0 121 135 0 135 0 0 -120 c0 -119 0 -121 -25 -132 -14 -6 -25
-19 -25 -30 0 -16 10 -18 105 -18 97 0 105 2 105 19 0 12 -11 23 -30 30 l-30
10 0 260 0 259 30 7 c21 5 30 13 30 26 0 18 -8 19 -105 19 -98 0 -105 -1 -105
-20 0 -13 9 -22 25 -26 25 -6 25 -7 25 -115 l0 -109 -135 0 -135 0 0 106 0
106 30 11 c18 7 30 19 30 29 0 16 -11 18 -105 18 -97 0 -105 -1 -105 -19z"/>
<path d="M823 823 c-43 -15 -50 -26 -35 -51 7 -10 19 -11 55 -2 81 18 138 -21
125 -87 -2 -14 -16 -19 -58 -24 -108 -11 -160 -56 -160 -134 0 -100 97 -154
190 -107 34 17 36 17 62 -1 24 -18 30 -18 70 -6 46 15 67 49 29 49 -35 0 -43
33 -36 140 13 174 -28 241 -145 239 -30 0 -74 -7 -97 -16z"/>
<path d="M1255 817 c-21 -12 -53 -42 -70 -65 -28 -41 -30 -49 -30 -136 0 -83
3 -96 27 -133 34 -52 87 -78 158 -78 65 0 140 29 140 55 0 14 -11 16 -74 16
-60 -1 -80 3 -103 20 -41 30 -55 68 -55 141 1 94 43 152 113 153 35 0 36 -1
48 -56 10 -41 17 -54 29 -52 16 3 24 24 35 94 6 39 5 41 -26 52 -56 20 -146
15 -192 -11z"/>
<path d="M1615 828 c-86 -47 -130 -157 -106 -268 15 -71 44 -108 109 -138 43
-19 64 -23 101 -19 67 8 131 35 131 56 0 15 -10 18 -78 17 -107 -1 -155 32
-169 118 l-6 36 128 0 128 0 -6 60 c-6 66 -32 111 -77 135 -34 17 -126 19
-155 3z"/>
<path d="M2804 825 c-134 -59 -150 -308 -26 -391 102 -69 255 -15 290 102 15
52 16 140 1 185 -15 43 -55 88 -96 105 -41 18 -128 17 -169 -1z m132 -52 c30
-30 47 -86 47 -154 0 -150 -94 -216 -164 -117 -21 29 -24 44 -24 130 0 93 1
98 29 127 34 36 84 42 112 14z"/>
<path d="M3910 819 c-102 -59 -132 -242 -56 -342 57 -75 169 -96 264 -50 63
31 49 48 -38 48 -56 0 -83 5 -103 18 -36 23 -67 74 -67 110 l0 27 126 0 127 0
-6 54 c-11 107 -60 156 -157 156 -37 0 -67 -7 -90 -21z"/>
<path d="M4245 826 c-56 -14 -72 -39 -31 -50 l26 -6 0 -154 0 -154 -25 -6
c-16 -4 -25 -13 -25 -25 0 -18 8 -20 105 -20 96 0 105 2 105 19 0 11 -11 22
-28 28 -26 9 -30 16 -35 63 -4 30 -7 93 -7 140 0 83 1 86 26 98 32 14 42 8 60
-35 20 -47 41 -44 49 9 3 23 9 57 12 75 5 30 4 32 -25 32 -17 0 -51 -9 -76
-20 -46 -19 -46 -19 -46 0 0 23 -11 23 -85 6z"/>
<path d="M647 233 c-4 -3 -7 -17 -7 -30 l0 -23 1560 0 1560 0 0 30 0 30 -1553
0 c-855 0 -1557 -3 -1560 -7z"/>
</g>
</svg>
