<?xml version="1.0" standalone="no"?>
<!DOCTYPE svg PUBLIC "-//W3C//DTD SVG 20010904//EN"
 "http://www.w3.org/TR/2001/REC-SVG-20010904/DTD/svg10.dtd">
<svg version="1.0" xmlns="http://www.w3.org/2000/svg"
 width="910.000000pt" height="280.000000pt" viewBox="0 0 910.000000 280.000000"
 preserveAspectRatio="xMidYMid meet">
<metadata>
Created by potrace 1.16, written by Peter Selinger 2001-2019
</metadata>
<g transform="translate(0.000000,280.000000) scale(0.100000,-0.100000)"
fill="#000000" stroke="none">
<path d="M1390 2385 l0 -45 2945 0 2945 0 0 45 0 45 -2945 0 -2945 0 0 -45z"/>
<path d="M1235 2148 c-162 -40 -185 -49 -185 -73 0 -18 10 -25 55 -40 l55 -17
0 -538 c0 -296 -3 -545 -6 -554 -3 -9 -17 -16 -29 -16 -13 0 -36 -5 -50 -10
-21 -8 -26 -16 -23 -38 l3 -27 198 -1 197 -2 0 28 c0 22 -6 30 -31 39 -18 6
-39 11 -48 11 -41 0 -42 15 -41 648 1 333 -2 607 -7 608 -4 1 -44 -7 -88 -18z"/>
<path d="M6440 2149 c-36 -11 -76 -19 -90 -19 -14 0 -38 -7 -54 -15 -15 -8
-35 -15 -42 -15 -8 0 -14 -6 -14 -14 0 -23 27 -45 70 -56 l40 -11 0 -543 c0
-423 -3 -546 -12 -553 -7 -6 -30 -13 -50 -17 -35 -6 -38 -10 -38 -40 l0 -33
191 0 190 0 -3 31 c-3 27 -8 32 -43 41 -22 5 -43 14 -47 20 -4 5 -8 285 -8
621 0 480 -3 613 -12 616 -7 3 -42 -3 -78 -13z"/>
<path d="M7370 2154 c-25 -7 -73 -19 -108 -25 -34 -6 -65 -15 -68 -20 -3 -5
-14 -9 -26 -9 -14 0 -18 -5 -14 -16 3 -9 6 -19 6 -22 0 -7 38 -25 78 -37 22
-6 22 -9 22 -180 l0 -173 -60 5 c-57 6 -196 -11 -229 -27 -9 -4 -32 -15 -53
-25 -80 -38 -157 -139 -186 -242 -21 -79 -21 -251 1 -322 47 -151 148 -239
285 -248 75 -6 156 17 224 62 27 18 38 21 38 11 0 -8 16 -28 35 -45 43 -38 75
-39 165 -8 56 20 65 26 65 47 0 20 -6 26 -30 30 -16 3 -39 10 -50 17 -20 11
-20 25 -25 624 -3 396 -9 613 -15 615 -5 1 -30 -4 -55 -12z m-124 -588 c11
-12 14 -66 14 -301 l0 -286 -42 -19 c-101 -46 -215 -11 -267 80 -44 76 -46 84
-46 216 0 120 2 134 25 179 32 64 94 125 126 125 13 0 24 5 24 10 0 16 149 13
166 -4z"/>
<path d="M348 2073 l-198 -3 0 -29 c0 -24 6 -31 43 -45 23 -9 48 -16 55 -16 6
0 14 -10 17 -22 3 -13 4 -247 3 -521 l-3 -498 -25 -13 c-14 -8 -38 -18 -55
-23 -25 -7 -30 -14 -30 -38 l0 -30 213 -2 213 -2 -3 32 c-3 28 -8 33 -43 42
-22 5 -42 12 -45 15 -3 4 -13 9 -22 13 -16 6 -18 25 -18 211 l0 204 126 1
c118 0 130 2 189 29 151 71 215 176 215 355 0 127 -20 186 -82 248 -27 27 -57
49 -67 49 -9 0 -26 6 -37 14 -19 14 -192 39 -231 34 -10 -2 -107 -4 -215 -5z
m282 -103 c0 -5 9 -10 20 -10 33 0 96 -66 120 -125 32 -78 26 -207 -13 -280
-31 -58 -47 -74 -102 -97 -56 -23 -100 -29 -157 -22 l-48 7 0 268 0 269 90 0
c53 0 90 -4 90 -10z"/>
<path d="M4160 2042 c0 -26 5 -31 58 -48 31 -10 60 -23 64 -29 4 -5 8 -239 8
-518 0 -501 0 -509 -20 -514 -11 -3 -20 -9 -20 -13 0 -4 -18 -10 -39 -14 -46
-7 -55 -18 -47 -52 l6 -24 203 2 c198 3 202 3 205 25 4 25 -31 53 -67 53 -47
0 -50 17 -51 278 l0 242 275 0 275 0 0 -246 c0 -183 -3 -248 -12 -258 -7 -6
-31 -16 -53 -21 -36 -9 -40 -13 -40 -40 l0 -30 203 -3 203 -2 -3 32 c-3 29 -8
34 -43 43 -81 20 -75 -22 -75 545 0 278 4 510 8 516 4 6 31 19 60 28 47 16 52
20 52 47 l0 29 -205 0 -205 0 0 -29 c0 -25 6 -31 53 -48 l52 -20 3 -217 2
-216 -275 0 -275 0 2 216 3 216 55 20 c67 25 64 22 56 53 l-6 25 -205 0 -205
0 0 -28z"/>
<path d="M1740 1669 c-132 -35 -195 -68 -172 -90 6 -7 12 -21 12 -31 0 -22 14
-22 110 -2 127 26 200 2 238 -80 28 -59 30 -136 4 -136 -10 0 -22 -4 -27 -9
-6 -5 -50 -11 -100 -14 -196 -10 -305 -103 -305 -260 0 -94 37 -162 110 -202
49 -27 64 -30 140 -30 77 0 91 3 146 33 l61 33 37 -37 c35 -35 39 -36 89 -31
54 6 157 44 157 58 0 25 -15 39 -41 39 -17 0 -40 9 -52 21 -22 20 -22 25 -22
290 0 177 -4 272 -10 277 -6 4 -17 26 -23 50 -15 50 -81 104 -149 121 -50 13
-154 13 -203 0z m210 -572 l0 -133 -33 -12 c-46 -17 -132 -15 -167 3 -85 44
-79 204 9 241 36 15 114 31 164 33 l27 1 0 -133z"/>
<path d="M2605 1669 c-91 -21 -180 -86 -238 -175 -92 -138 -89 -405 5 -534 45
-62 63 -77 138 -112 95 -46 204 -50 315 -13 110 36 127 49 123 88 -3 30 -5 32
-38 27 -19 -3 -78 -5 -131 -5 -87 0 -101 3 -153 30 -84 43 -114 90 -131 200
-13 93 -6 202 17 260 19 49 70 106 112 126 27 13 61 19 106 19 l66 0 14 -62
c17 -80 45 -151 59 -156 23 -8 49 29 54 76 3 26 11 78 16 115 12 75 9 87 -20
87 -10 0 -19 4 -19 8 0 25 -213 40 -295 21z"/>
<path d="M3275 1666 c-60 -17 -96 -39 -144 -91 -59 -63 -90 -125 -107 -213
-37 -194 6 -361 120 -464 22 -21 47 -38 54 -38 7 0 23 -6 35 -14 68 -42 236
-46 337 -7 99 39 120 53 120 82 0 34 -16 40 -71 27 -24 -5 -83 -8 -131 -6 -73
3 -96 9 -151 37 -58 29 -69 40 -97 93 -23 43 -34 79 -38 124 l-5 64 247 0 246
0 0 83 c0 80 -15 152 -42 198 -21 38 -80 99 -95 99 -7 0 -13 4 -13 8 0 27
-190 40 -265 18z m183 -105 c34 -43 41 -61 48 -128 l7 -73 -158 0 -158 0 6 37
c4 20 18 60 33 90 40 78 90 106 169 96 22 -3 46 -13 53 -22z"/>
<path d="M5663 1667 c-24 -6 -43 -14 -43 -19 0 -4 -8 -8 -17 -8 -29 0 -109
-76 -147 -139 -85 -139 -87 -380 -6 -513 44 -72 90 -114 158 -146 50 -24 69
-27 157 -27 89 0 107 3 162 29 60 27 127 87 166 147 68 103 88 305 43 437 -31
93 -110 193 -163 208 -13 3 -23 9 -23 13 0 26 -202 39 -287 18z m187 -100 c77
-37 122 -156 122 -327 1 -154 -34 -254 -107 -311 -22 -18 -40 -23 -91 -22 -61
0 -65 2 -104 43 -22 23 -40 48 -40 55 0 8 -6 20 -13 27 -23 25 -37 108 -37
228 0 106 14 206 31 220 3 3 14 19 23 36 38 65 137 88 216 51z"/>
<path d="M7900 1669 c-126 -37 -221 -144 -256 -289 -17 -72 -17 -222 0 -288
31 -116 113 -211 217 -252 88 -34 246 -35 329 -2 94 38 120 55 120 77 0 41
-14 49 -63 36 -64 -16 -174 -14 -235 4 -113 34 -192 135 -192 246 l0 59 245 0
245 0 0 78 c0 96 -19 167 -58 223 -36 53 -54 68 -107 94 -47 22 -189 30 -245
14z m173 -107 c32 -28 44 -64 49 -134 l4 -68 -153 0 -153 0 0 28 c0 37 51 142
83 169 14 12 36 24 49 26 38 8 101 -3 121 -21z"/>
<path d="M8575 1665 c-27 -6 -57 -14 -65 -17 -8 -3 -37 -10 -65 -14 -47 -8
-50 -11 -53 -41 -3 -27 0 -33 16 -33 10 0 33 -5 51 -11 l31 -11 0 -301 c0
-166 -4 -307 -8 -313 -4 -6 -22 -14 -41 -17 -46 -9 -59 -22 -54 -51 l5 -25
200 0 c172 0 200 2 205 16 10 25 -11 47 -53 58 -80 21 -75 -1 -81 311 l-6 279
40 23 c81 45 101 31 153 -106 11 -27 17 -33 39 -30 28 3 29 7 47 166 4 34 11
65 15 68 5 3 9 18 9 35 0 26 -3 29 -33 29 -48 0 -147 -21 -147 -31 0 -5 -8 -9
-18 -9 -9 0 -34 -11 -54 -25 -20 -14 -39 -25 -42 -25 -4 0 -6 20 -6 45 0 51 0
51 -85 30z"/>
<path d="M1290 420 l0 -50 3110 0 3110 0 0 50 0 50 -3110 0 -3110 0 0 -50z"/>
</g>
</svg>
