<?xml version="1.0" standalone="no"?>
<!DOCTYPE svg PUBLIC "-//W3C//DTD SVG 20010904//EN"
 "http://www.w3.org/TR/2001/REC-SVG-20010904/DTD/svg10.dtd">
<svg version="1.0" xmlns="http://www.w3.org/2000/svg"
 width="720.000000pt" height="540.000000pt" viewBox="0 0 720.000000 540.000000"
 preserveAspectRatio="xMidYMid meet">
<metadata>
Created by potrace 1.16, written by Peter Selinger 2001-2019
</metadata>
<g transform="translate(0.000000,540.000000) scale(0.100000,-0.100000)"
fill="#000000" stroke="none">
<path d="M1290 5020 l0 -30 2200 0 2200 0 0 30 0 30 -2200 0 -2200 0 0 -30z"/>
<path d="M1180 4849 c-14 -5 -51 -14 -82 -20 -46 -8 -58 -14 -58 -29 0 -14 12
-23 40 -31 l40 -12 -2 -396 -3 -395 -37 -9 c-30 -7 -38 -14 -38 -32 0 -22 1
-22 145 -22 144 0 145 0 145 22 0 18 -8 25 -37 32 l-38 9 -3 447 -2 447 -23
-1 c-12 -1 -33 -5 -47 -10z"/>
<path d="M5045 4845 c-27 -7 -67 -16 -87 -20 -53 -8 -52 -37 2 -55 l40 -13 -2
-396 -3 -395 -37 -9 c-30 -7 -38 -14 -38 -32 0 -22 1 -22 145 -22 144 0 145 0
145 23 0 17 -8 24 -37 31 l-38 9 -3 447 c-3 505 7 456 -87 432z"/>
<path d="M5755 4851 c-11 -5 -50 -14 -87 -21 -53 -9 -68 -16 -68 -30 0 -11 14
-21 40 -30 l40 -13 0 -122 0 -122 -97 -5 c-102 -5 -135 -16 -201 -65 -47 -35
-79 -91 -97 -168 -19 -83 -19 -112 1 -187 20 -79 54 -131 107 -165 36 -24 52
-27 122 -28 68 0 87 4 126 26 l46 26 32 -29 c36 -32 59 -34 130 -11 56 18 67
45 21 51 -14 2 -33 11 -42 19 -17 15 -18 49 -18 450 0 406 -1 433 -17 432 -10
0 -27 -4 -38 -8z m-82 -418 c4 -2 7 -100 7 -217 l0 -213 -39 -11 c-148 -45
-246 66 -227 257 12 111 53 166 141 189 36 9 98 6 118 -5z"/>
<path d="M508 4793 c-139 -3 -148 -5 -148 -23 0 -15 11 -22 45 -31 l45 -11 0
-378 0 -378 -42 -14 c-32 -9 -43 -18 -43 -33 0 -19 7 -20 158 -22 l157 -2 0
24 c0 20 -8 26 -47 37 l-48 14 -3 146 -3 145 103 5 c151 7 223 48 279 157 19
36 23 61 23 127 0 74 -3 87 -30 131 -23 36 -43 54 -84 74 -64 31 -131 37 -362
32z m233 -77 c65 -27 99 -90 99 -181 0 -140 -90 -220 -223 -198 l-37 6 0 193
0 194 64 0 c35 0 79 -6 97 -14z"/>
<path d="M3362 4773 c2 -10 22 -25 48 -34 l45 -17 0 -373 0 -374 -40 -13 c-49
-16 -57 -24 -49 -45 5 -15 25 -17 155 -17 l149 0 0 24 c0 20 -7 26 -37 33
l-38 9 -3 182 -2 182 205 0 205 0 -2 -176 c-3 -190 0 -179 -60 -202 -20 -8
-25 -16 -21 -31 5 -20 12 -21 154 -21 l149 0 0 24 c0 19 -7 26 -32 31 -18 4
-39 12 -45 17 -10 8 -13 94 -13 368 0 197 3 365 6 374 3 9 24 21 45 26 29 8
39 16 39 30 0 19 -8 20 -155 20 -89 0 -155 -4 -155 -9 0 -17 29 -39 60 -46
l30 -7 0 -159 0 -159 -205 0 -205 0 0 158 0 159 40 12 c29 9 40 17 40 31 0 19
-8 20 -156 20 -142 0 -155 -2 -152 -17z"/>
<path d="M1505 4492 c-80 -27 -89 -35 -75 -62 11 -21 16 -22 63 -14 118 18
174 4 200 -52 10 -19 17 -50 17 -69 0 -37 -1 -38 -114 -50 -113 -13 -182 -53
-212 -122 -32 -74 -4 -163 63 -204 53 -33 171 -34 226 -1 l39 23 30 -26 c35
-29 57 -31 127 -8 37 12 51 21 51 35 0 12 -7 18 -23 18 -13 0 -32 6 -43 14
-18 14 -19 26 -16 188 4 207 -9 261 -72 313 -35 28 -45 30 -124 32 -62 2 -102
-2 -137 -15z m205 -395 c0 -91 -1 -94 -25 -105 -14 -7 -46 -12 -71 -12 -85 0
-130 78 -87 151 23 38 55 50 161 57 21 2 22 -1 22 -91z"/>
<path d="M2154 4491 c-115 -52 -184 -166 -184 -307 0 -118 49 -208 142 -259
48 -27 61 -30 148 -30 80 1 103 4 145 25 35 17 51 32 53 47 3 23 2 23 -85 17
-181 -12 -263 58 -265 226 0 111 39 191 109 221 90 38 116 27 144 -64 12 -40
26 -76 31 -82 16 -17 38 20 48 81 5 32 12 71 15 85 6 25 2 28 -41 43 -67 23
-207 21 -260 -3z"/>
<path d="M2665 4489 c-51 -26 -96 -73 -126 -130 -21 -39 -24 -57 -24 -164 0
-136 13 -175 80 -233 60 -53 99 -66 205 -66 82 0 103 4 153 26 40 19 57 33 57
46 0 17 -9 18 -107 18 -96 -1 -114 2 -158 24 -57 29 -89 77 -99 153 l-7 47
185 0 186 0 0 58 c0 31 -5 73 -10 93 -13 46 -75 118 -117 135 -51 22 -171 18
-218 -7z m174 -63 c22 -24 40 -79 41 -123 0 -23 -2 -23 -115 -23 l-115 0 0 25
c0 37 39 110 69 128 40 25 93 22 120 -7z"/>
<path d="M4453 4491 c-51 -24 -112 -84 -138 -136 -17 -33 -20 -61 -20 -160 0
-105 3 -125 22 -162 29 -53 63 -87 116 -115 60 -32 204 -32 262 -1 68 36 111
88 141 169 23 63 26 85 22 146 -8 119 -65 214 -152 254 -67 31 -190 33 -253 5z
m171 -55 c38 -19 61 -54 81 -121 47 -157 -6 -339 -105 -358 -49 -10 -101 13
-131 58 -52 76 -63 272 -20 355 35 68 114 98 175 66z"/>
<path d="M6132 4496 c-59 -27 -99 -66 -133 -129 -33 -60 -34 -66 -34 -172 0
-96 3 -116 24 -155 28 -55 66 -92 123 -122 36 -19 59 -23 139 -23 60 0 107 5
125 13 16 8 40 19 54 26 14 6 26 22 28 34 3 22 2 22 -81 16 -94 -7 -172 11
-216 50 -32 29 -61 93 -61 139 l0 37 180 0 180 0 0 73 c0 88 -24 143 -84 191
-35 29 -44 31 -124 34 -60 1 -97 -2 -120 -12z m155 -61 c24 -17 43 -71 43
-122 l0 -33 -115 0 c-107 0 -115 1 -115 19 0 35 37 107 66 129 34 25 91 28
121 7z"/>
<path d="M6605 4491 c-56 -14 -71 -22 -73 -38 -2 -16 4 -22 32 -27 32 -6 35
-10 41 -49 3 -23 5 -123 3 -221 -3 -192 -1 -185 -60 -205 -20 -8 -25 -15 -21
-30 5 -19 12 -20 152 -18 139 2 146 3 146 22 0 15 -11 23 -41 33 -52 16 -54
25 -54 258 l0 171 25 11 c34 16 72 15 82 0 4 -7 15 -31 24 -53 10 -25 24 -41
36 -43 17 -3 21 6 32 75 6 43 14 91 18 107 l6 29 -54 -5 c-44 -4 -92 -20 -161
-56 -5 -2 -8 10 -8 27 0 27 -3 31 -27 30 -16 -1 -59 -9 -98 -18z"/>
<path d="M1220 3605 l0 -35 2325 0 2325 0 0 35 0 35 -2325 0 -2325 0 0 -35z"/>
<path d="M1320 2400 l0 -30 2200 0 2200 0 0 30 0 30 -2200 0 -2200 0 0 -30z"/>
<path d="M1210 2229 c-14 -5 -51 -14 -82 -20 -46 -8 -58 -14 -58 -29 0 -14 12
-23 40 -31 l40 -12 -2 -396 -3 -395 -37 -9 c-30 -7 -38 -14 -38 -32 0 -22 1
-22 145 -22 144 0 145 0 145 22 0 18 -8 25 -37 32 l-38 9 -3 447 -2 447 -23
-1 c-12 -1 -33 -5 -47 -10z"/>
<path d="M5075 2225 c-27 -7 -67 -16 -87 -20 -53 -8 -52 -37 2 -55 l40 -13 -2
-396 -3 -395 -37 -9 c-30 -7 -38 -14 -38 -32 0 -22 1 -22 145 -22 144 0 145 0
145 23 0 17 -8 24 -37 31 l-38 9 -3 447 c-3 505 7 456 -87 432z"/>
<path d="M5785 2231 c-11 -5 -50 -14 -87 -21 -53 -9 -68 -16 -68 -30 0 -11 14
-21 40 -30 l40 -13 0 -122 0 -122 -97 -5 c-102 -5 -135 -16 -201 -65 -47 -35
-79 -91 -97 -168 -19 -83 -19 -112 1 -187 20 -79 54 -131 107 -165 36 -24 52
-27 122 -28 68 0 87 4 126 26 l46 26 32 -29 c36 -32 59 -34 130 -11 56 18 67
45 21 51 -14 2 -33 11 -42 19 -17 15 -18 49 -18 450 0 406 -1 433 -17 432 -10
0 -27 -4 -38 -8z m-82 -418 c4 -2 7 -100 7 -217 l0 -213 -39 -11 c-148 -45
-246 66 -227 257 12 111 53 166 141 189 36 9 98 6 118 -5z"/>
<path d="M538 2173 c-139 -3 -148 -5 -148 -23 0 -15 11 -22 45 -31 l45 -11 0
-378 0 -378 -42 -14 c-32 -9 -43 -18 -43 -33 0 -19 7 -20 158 -22 l157 -2 0
24 c0 20 -8 26 -47 37 l-48 14 -3 146 -3 145 103 5 c151 7 223 48 279 157 19
36 23 61 23 127 0 74 -3 87 -30 131 -23 36 -43 54 -84 74 -64 31 -131 37 -362
32z m233 -77 c65 -27 99 -90 99 -181 0 -140 -90 -220 -223 -198 l-37 6 0 193
0 194 64 0 c35 0 79 -6 97 -14z"/>
<path d="M3392 2153 c2 -10 22 -25 48 -34 l45 -17 0 -373 0 -374 -40 -13 c-49
-16 -57 -24 -49 -45 5 -15 25 -17 155 -17 l149 0 0 24 c0 20 -7 26 -37 33
l-38 9 -3 182 -2 182 205 0 205 0 -2 -176 c-3 -190 0 -179 -60 -202 -20 -8
-25 -16 -21 -31 5 -20 12 -21 154 -21 l149 0 0 24 c0 19 -7 26 -32 31 -18 4
-39 12 -45 17 -10 8 -13 94 -13 368 0 197 3 365 6 374 3 9 24 21 45 26 29 8
39 16 39 30 0 19 -8 20 -155 20 -89 0 -155 -4 -155 -9 0 -17 29 -39 60 -46
l30 -7 0 -159 0 -159 -205 0 -205 0 0 158 0 159 40 12 c29 9 40 17 40 31 0 19
-8 20 -156 20 -142 0 -155 -2 -152 -17z"/>
<path d="M1535 1872 c-80 -27 -89 -35 -75 -62 11 -21 16 -22 63 -14 118 18
174 4 200 -52 10 -19 17 -50 17 -69 0 -37 -1 -38 -114 -50 -113 -13 -182 -53
-212 -122 -32 -74 -4 -163 63 -204 53 -33 171 -34 226 -1 l39 23 30 -26 c35
-29 57 -31 127 -8 37 12 51 21 51 35 0 12 -7 18 -23 18 -13 0 -32 6 -43 14
-18 14 -19 26 -16 188 4 207 -9 261 -72 313 -35 28 -45 30 -124 32 -62 2 -102
-2 -137 -15z m205 -395 c0 -91 -1 -94 -25 -105 -14 -7 -46 -12 -71 -12 -85 0
-130 78 -87 151 23 38 55 50 161 57 21 2 22 -1 22 -91z"/>
<path d="M2184 1871 c-115 -52 -184 -166 -184 -307 0 -118 49 -208 142 -259
48 -27 61 -30 148 -30 80 1 103 4 145 25 35 17 51 32 53 47 3 23 2 23 -85 17
-181 -12 -263 58 -265 226 0 111 39 191 109 221 90 38 116 27 144 -64 12 -40
26 -76 31 -82 16 -17 38 20 48 81 5 32 12 71 15 85 6 25 2 28 -41 43 -67 23
-207 21 -260 -3z"/>
<path d="M2695 1869 c-51 -26 -96 -73 -126 -130 -21 -39 -24 -57 -24 -164 0
-136 13 -175 80 -233 60 -53 99 -66 205 -66 82 0 103 4 153 26 40 19 57 33 57
46 0 17 -9 18 -107 18 -96 -1 -114 2 -158 24 -57 29 -89 77 -99 153 l-7 47
185 0 186 0 0 58 c0 31 -5 73 -10 93 -13 46 -75 118 -117 135 -51 22 -171 18
-218 -7z m174 -63 c22 -24 40 -79 41 -123 0 -23 -2 -23 -115 -23 l-115 0 0 25
c0 37 39 110 69 128 40 25 93 22 120 -7z"/>
<path d="M4483 1871 c-51 -24 -112 -84 -138 -136 -17 -33 -20 -61 -20 -160 0
-105 3 -125 22 -162 29 -53 63 -87 116 -115 60 -32 204 -32 262 -1 68 36 111
88 141 169 23 63 26 85 22 146 -8 119 -65 214 -152 254 -67 31 -190 33 -253 5z
m171 -55 c38 -19 61 -54 81 -121 47 -157 -6 -339 -105 -358 -49 -10 -101 13
-131 58 -52 76 -63 272 -20 355 35 68 114 98 175 66z"/>
<path d="M6162 1876 c-59 -27 -99 -66 -133 -129 -33 -60 -34 -66 -34 -172 0
-96 3 -116 24 -155 28 -55 66 -92 123 -122 36 -19 59 -23 139 -23 60 0 107 5
125 13 16 8 40 19 54 26 14 6 26 22 28 34 3 22 2 22 -81 16 -94 -7 -172 11
-216 50 -32 29 -61 93 -61 139 l0 37 180 0 180 0 0 73 c0 88 -24 143 -84 191
-35 29 -44 31 -124 34 -60 1 -97 -2 -120 -12z m155 -61 c24 -17 43 -71 43
-122 l0 -33 -115 0 c-107 0 -115 1 -115 19 0 35 37 107 66 129 34 25 91 28
121 7z"/>
<path d="M6635 1871 c-56 -14 -71 -22 -73 -38 -2 -16 4 -22 32 -27 32 -6 35
-10 41 -49 3 -23 5 -123 3 -221 -3 -192 -1 -185 -60 -205 -20 -8 -25 -15 -21
-30 5 -19 12 -20 152 -18 139 2 146 3 146 22 0 15 -11 23 -41 33 -52 16 -54
25 -54 258 l0 171 25 11 c34 16 72 15 82 0 4 -7 15 -31 24 -53 10 -25 24 -41
36 -43 17 -3 21 6 32 75 6 43 14 91 18 107 l6 29 -54 -5 c-44 -4 -92 -20 -161
-56 -5 -2 -8 10 -8 27 0 27 -3 31 -27 30 -16 -1 -59 -9 -98 -18z"/>
<path d="M1250 985 l0 -35 2325 0 2325 0 0 35 0 35 -2325 0 -2325 0 0 -35z"/>
</g>
</svg>
